<svg xmlns="http://www.w3.org/2000/svg" width="24" height="24" viewBox="0 0 24 24" fill="none">
    <path fill-rule="evenodd" clip-rule="evenodd" d="M11.9991 2.2002L12.2877 2.20437C17.5783 2.35753 21.7991 6.69495 21.7991 12.0118L21.795 12.2887C21.6418 17.5794 17.3044 21.8001 11.9876 21.8001L11.7106 21.796C6.41993 21.6429 2.19922 17.3054 2.19922 11.9886L2.20331 11.7117C2.35647 6.42099 6.69389 2.2002 11.9991 2.2002ZM18.5918 7.12208L7.1201 18.5938C8.41977 19.558 10.0147 20.1463 11.7453 20.1964L11.9991 20.2002C16.4382 20.2002 20.0675 16.6684 20.1954 12.254L20.1991 12.0002C20.1991 10.1749 19.602 8.48644 18.5918 7.12208ZM11.9991 3.8002C7.56012 3.8002 3.93077 7.33196 3.80289 11.7464L3.79914 12.0002C3.79914 14.1233 4.60703 16.0612 5.93299 17.5193L17.5183 5.9335C16.1201 4.65932 14.2795 3.86266 12.253 3.80395L11.9991 3.8002Z" fill="#0081FF"/>
</svg>