<svg width="24" height="24" viewBox="0 0 24 24" fill="none" xmlns="http://www.w3.org/2000/svg">
<path fill-rule="evenodd" clip-rule="evenodd" d="M12.1005 4.19978V5.79978H3.79995V20.1998H20.2V11.3336H21.7999V21.7998H2.19995V4.19978H12.1005ZM18.7999 15.1998V16.7998H5.19995V15.1998H18.7999ZM18.7919 1.64355L22.3565 5.20955L20.347 7.21555L20.3513 7.21978L19.2199 8.35115L19.216 8.34655L15.0868 12.4731L11.0983 12.9011L11.5277 8.91174L15.652 4.78355L15.6486 4.77978L16.78 3.64841L16.784 3.65155L18.7919 1.64355ZM8.79995 11.1998V12.7998H5.19995V11.1998H8.79995ZM16.784 5.91455L13.058 9.64278L12.901 11.0978L14.355 10.9418L18.084 7.21455L16.784 5.91455ZM18.792 3.90578L17.915 4.78255L19.216 6.08455L20.093 5.20778L18.792 3.90578Z" fill="white"/>
</svg>
