<svg width="24" height="24" viewBox="0 0 24 24" fill="none" xmlns="http://www.w3.org/2000/svg">
<path fill-rule="evenodd" clip-rule="evenodd" d="M11.9999 4.2002C15.6176 4.2002 19.413 7.1336 21.586 11.1533C21.8709 11.6814 21.8709 12.32 21.5856 12.8487C19.4128 16.8671 15.6174 19.8002 11.9999 19.8002C8.38218 19.8002 4.58679 16.8668 2.41383 12.8471C2.12892 12.319 2.12892 11.6804 2.41419 11.1517C4.58704 7.13328 8.38242 4.2002 11.9999 4.2002ZM11.9999 5.8002C9.05705 5.8002 5.74119 8.3627 3.82197 11.9121C3.79288 11.966 3.79288 12.0334 3.82166 12.0868C5.74105 15.6374 9.05687 18.2002 11.9999 18.2002C14.9428 18.2002 18.2586 15.6377 20.1778 12.0883C20.2069 12.0344 20.2069 11.967 20.1781 11.9136C18.2587 8.36294 14.9429 5.8002 11.9999 5.8002ZM9.31288 9.31319C10.7969 7.8292 13.2029 7.8292 14.6869 9.31319C16.1709 10.7972 16.1709 13.2032 14.6869 14.6872C13.2029 16.1712 10.7969 16.1712 9.31288 14.6872C7.82889 13.2032 7.82889 10.7972 9.31288 9.31319ZM13.5555 10.4446C12.6964 9.58541 11.3034 9.58541 10.4442 10.4446C9.5851 11.3037 9.5851 12.6967 10.4442 13.5558C11.3034 14.415 12.6964 14.415 13.5555 13.5558C14.4147 12.6967 14.4147 11.3037 13.5555 10.4446Z" fill="#555F83"/>
</svg>
