<svg width="24" height="24" viewBox="0 0 24 24" fill="none" xmlns="http://www.w3.org/2000/svg">
<path d="M23.032 10.9814L22.5408 11.6133C21.2729 13.2458 19.8269 14.5196 18.282 15.4375L20.1267 17.6328L18.9021 18.6621L16.822 16.1855C15.5172 16.7542 14.163 17.0867 12.7996 17.1797V20.335H11.2V17.1787C9.83633 17.0858 8.48148 16.7553 7.17651 16.1865L5.09839 18.6621L3.8728 17.6328L5.71655 15.4375C4.2559 14.5696 2.8835 13.3836 1.66675 11.877L1.45776 11.6133L0.967529 10.9814L2.2312 10L2.72144 10.6318C4.04494 12.336 5.57372 13.602 7.20093 14.4307C8.85686 15.3274 12.4999 16.4076 16.0837 14.7646C17.8915 13.9975 19.5992 12.707 21.0691 10.8936L21.2771 10.6318L21.7683 10L23.032 10.9814Z" fill="#555F83"/>
</svg>
