<svg width="24" height="24" viewBox="0 0 24 24" fill="none" xmlns="http://www.w3.org/2000/svg">
<path fill-rule="evenodd" clip-rule="evenodd" d="M11.0769 21V20.9515L10.871 20.9299C6.52548 20.386 3.14348 16.7442 3.00445 12.2857L3 12C3 7.02983 7.02903 3 12 3C16.9694 3 21 7.03058 21 12C21 16.5872 17.5657 20.3744 13.1287 20.9299L12.9231 20.9515V21H11.0769Z" fill="white"/>
<path fill-rule="evenodd" clip-rule="evenodd" d="M12 4.84619C8.04875 4.84619 4.84619 8.04939 4.84619 12C4.84619 15.8629 7.908 19.0111 11.7378 19.1492L12 19.1539L12.2622 19.1492C16.0037 19.0143 19.0143 16.0037 19.1492 12.2622L19.1539 12C19.1539 8.05022 15.9499 4.84619 12 4.84619Z" fill="#0081FF"/>
<path fill-rule="evenodd" clip-rule="evenodd" d="M12.8005 11.0472V17.0472H11.3005V11.0472H12.8005Z" fill="white"/>
<path fill-rule="evenodd" clip-rule="evenodd" d="M12.8005 7.63745V9.13745H11.3005V7.63745H12.8005Z" fill="white"/>
</svg>
