<svg width="304" height="74" viewBox="0 0 304 74" fill="none" xmlns="http://www.w3.org/2000/svg">
<rect width="304" height="74" fill="#0056CB"/>
<path fill-rule="evenodd" clip-rule="evenodd" d="M5.84229 44.8528L35.0046 74.0002L64.1845 44.8528L57.3964 38.0772L35.0046 60.4338L19.4064 44.8528L35.0046 29.2761L41.6608 35.9077L48.439 29.13L35.0046 15.7163L5.84229 44.8528Z" fill="white"/>
<path fill-rule="evenodd" clip-rule="evenodd" d="M64.1739 29.1485L35.0116 0L5.83496 29.1485L12.6121 35.9197L35.0116 13.5565L50.6109 29.1485L35.0116 44.7241L28.3587 38.0848L21.5651 44.8515L35.0116 58.2817L64.1739 29.1485Z" fill="white"/>
<path d="M130.545 44.1038C129.139 44.4062 127.732 44.5538 126.98 44.5819C125.706 44.6489 124.95 44.4026 124.512 43.6474C124.074 42.893 123.955 41.6307 123.955 39.6675C123.955 35.7383 124.445 34.6063 126.98 34.7232C127.732 34.7603 129.346 35.1225 130.556 35.2484L130.904 32.9546C129.718 32.7328 128.165 32.4294 127.1 32.3868C121.461 32.126 120.092 34.6344 120.092 39.6675C120.092 44.706 121.464 47.1754 127.108 46.939C128.25 46.8956 129.792 46.6728 130.998 46.4283L130.545 44.1038ZM83.3835 27.0459L84.1333 27.0667C87.7834 27.2759 89.9345 29.0499 89.9345 32.2881C89.9345 33.3359 89.7642 34.1844 89.4586 34.8671C89.153 35.5499 88.713 36.0679 88.1754 36.4528C89.4843 37.1401 90.627 38.3879 90.627 40.7514C90.627 45.2438 87.6473 46.6601 83.8611 46.6601H75.8549V27.0459H83.3835ZM83.9034 38.0264L79.605 38.0257V43.9127H83.8611L84.5665 43.8828C86.1004 43.737 86.8409 43.0144 86.8409 40.7514C86.8409 38.0411 85.0099 38.0257 83.6608 38.0257L83.9034 38.0264ZM83.3835 29.7952H79.605V35.3009H83.6608L84.302 35.262C85.6707 35.0781 86.1595 34.2233 86.1595 32.2881C86.1595 30.3113 85.5278 29.7952 83.3835 29.7952ZM98.2601 32.3868C100.12 32.3868 101.474 32.8478 102.362 33.6646C103.251 34.4805 103.675 35.6532 103.675 37.0758V46.5198L101.969 46.7217C100.249 46.9064 98.4775 47.0142 96.6045 46.815C93.534 46.4763 91.6431 44.8128 91.6431 42.1831C91.6431 39.8033 92.9922 38.1054 96.5301 37.6662C97.836 37.503 99.3767 37.4701 99.8198 37.4638L99.9447 37.4625V36.9227L99.9216 36.4147C99.8137 35.3154 99.3147 34.8065 98.2601 34.8065C96.9769 34.8065 95.4078 35.1252 93.2986 35.5617L92.8912 33.1855C95.1082 32.721 96.6439 32.3868 98.2601 32.3868ZM99.9447 39.8033L98.6744 39.8395C98.3106 39.8613 97.9023 39.8948 97.4914 39.9491C96.8571 40.0333 96.3606 40.2461 96.0225 40.6092C95.6843 40.9733 95.5046 41.4876 95.5046 42.1786C95.5046 43.2073 95.8256 44.1137 97.1883 44.3972C98.0401 44.5783 98.9141 44.5176 99.9447 44.3972V39.8033ZM138.038 32.3814L138.811 32.4068C142.571 32.663 144.783 34.8527 144.783 39.4293C144.783 41.8625 144.436 43.7334 143.42 44.9957C142.403 46.2581 140.717 46.9128 138.038 46.9128C132.738 46.9128 131.184 44.6235 131.184 39.3786C131.184 34.4316 133.41 32.3814 138.038 32.3814ZM138.038 34.7594C136.911 34.7594 136.155 34.9604 135.679 35.6378C135.204 36.3151 135.01 37.4697 135.01 39.3786C135.01 43.4644 135.525 44.5547 138.038 44.5547C140.513 44.5547 140.956 43.2553 140.956 39.4293L140.943 38.7873C140.811 35.7138 139.711 34.7594 138.038 34.7594ZM163.699 27.0577V46.5877L162.268 46.7462C160.941 46.8775 159.893 46.9282 158.785 46.9282C152.499 46.9282 151.21 44.1988 151.21 39.346C151.21 35.032 152.624 32.3606 157.39 32.3606C158.363 32.3606 159.252 32.4294 159.968 32.529V27.0577H163.699ZM157.929 34.6825L157.39 34.7268C156.46 34.8626 155.882 35.2067 155.535 35.9284C155.189 36.6493 155.075 37.7486 155.075 39.394C155.075 42.8559 155.462 44.3573 158.242 44.5248C159.36 44.59 159.968 44.4805 159.968 44.4805V34.9332L159.428 34.8074C158.838 34.6933 158.111 34.6299 157.39 34.7268L157.929 34.6825ZM171.569 32.3805C175.881 32.3805 178.136 34.5339 178.136 39.1821V40.7894H169.145L169.205 41.6995C169.403 43.6673 170.045 44.5602 171.94 44.5602C173.198 44.5602 175.879 44.1889 177.218 43.8864L177.624 46.2517L176.13 46.5469C174.663 46.8023 173.276 46.9381 171.902 46.9381C169.124 46.9381 167.455 46.1729 166.481 44.8789C165.507 43.5858 165.227 41.7629 165.227 39.6494C165.227 34.3175 167.576 32.3805 171.569 32.3805ZM171.707 34.7594C170.853 34.7594 170.238 34.9785 169.823 35.5454C169.409 36.1132 169.195 37.0287 169.145 38.4205H174.361L174.293 37.457C174.062 35.4114 173.3 34.7594 171.707 34.7594ZM105.666 46.6493H109.351V35.1461C110.03 34.9568 111.093 34.7268 112.068 34.7268C113.8 34.7268 114.575 35.6106 114.742 38.1615L114.777 39.3587V46.6493H118.528V39.3587C118.528 37.093 118.118 35.3435 117.106 34.1599C116.093 32.9764 114.477 32.3597 112.068 32.3597C110.089 32.3597 108.325 32.7536 106.468 33.459L105.666 33.7796V46.6493Z" fill="white"/>
<path fill-rule="evenodd" clip-rule="evenodd" d="M202.974 39.7705C202.974 34.7376 204.343 32.2286 209.981 32.4893C211.05 32.5318 212.607 32.8358 213.783 33.0576L213.432 35.3506C212.235 35.2247 210.62 34.8634 209.855 34.8262C207.32 34.7094 206.846 35.8413 206.846 39.7705C206.846 41.7335 206.965 42.9957 207.401 43.75C207.836 44.5051 208.588 44.7516 209.855 44.6846C210.62 44.6565 212.026 44.5085 213.432 44.2061L213.873 46.5312C212.674 46.7757 211.13 46.9985 209.987 47.042C204.356 47.2783 202.974 44.8087 202.974 39.7705ZM214.472 39.7705C214.472 34.7375 215.843 32.2285 221.49 32.4893C222.55 32.5318 224.103 32.8358 225.287 33.0576L224.94 35.3506C223.736 35.2247 222.117 34.8633 221.359 34.8262C218.828 34.7094 218.345 35.8414 218.345 39.7705C218.345 41.7333 218.464 42.9957 218.902 43.75C219.338 44.5052 220.092 44.7515 221.359 44.6846C222.117 44.6565 223.526 44.5085 224.933 44.2061L225.377 46.5312C224.17 46.7757 222.63 46.9985 221.49 47.042C215.856 47.2783 214.472 44.8087 214.472 39.7705ZM291.599 32.4834C295.913 32.4835 298.165 34.6371 298.165 39.2852V40.8916H289.175L289.235 41.8018C289.431 43.7695 290.067 44.6631 291.963 44.6631C293.23 44.6631 295.901 44.2917 297.246 43.9893L297.654 46.3545L296.158 46.6494C294.692 46.9048 293.303 47.041 291.931 47.041C289.153 47.041 287.487 46.2754 286.515 44.9814C285.542 43.6883 285.265 41.8655 285.265 39.752C285.265 34.4201 287.594 32.4834 291.599 32.4834ZM245.132 46.6904L242.442 46.9316C241.662 46.9932 240.96 47.0312 240.217 47.0312C233.937 47.0311 232.642 44.301 232.642 39.4482C232.642 35.1344 234.063 32.4629 238.827 32.4629C239.801 32.4629 240.683 32.5322 241.4 32.6318V27.1602H245.132V46.6904ZM281.354 32.8125H284.304V35.1895H281.354V42.1416L281.383 43.1709C281.447 44.0262 281.636 44.3874 282.123 44.46C282.698 44.5523 283.277 44.4475 284.293 44.3506L284.732 46.6797L283.823 46.8438C282.672 47.0212 281.836 47.0312 281.387 47.0312C278.111 47.0311 277.549 45.4277 277.549 42.1416V35.1895H275.27V32.8125H277.549V29.498H281.354V32.8125ZM253.298 32.4727C257.614 32.4727 259.861 34.6264 259.862 39.2607V40.8789H250.875L250.936 41.7891C251.134 43.7595 251.77 44.6445 253.675 44.6445C254.927 44.6445 257.604 44.2853 258.956 43.9639L259.352 46.3359L257.856 46.6338C256.389 46.8927 255.006 47.0302 253.637 47.0303C250.855 47.0303 249.185 46.2647 248.21 44.9707C247.235 43.6749 246.957 41.8538 246.957 39.7422C246.957 34.4041 249.3 32.4728 253.298 32.4727ZM192.818 26.9434C198.342 26.9434 201.505 29.828 201.505 36.6514L201.485 37.8896C201.273 43.8859 199.366 46.9912 192.818 46.9912C189.354 46.9912 187.144 46.2243 185.797 44.54C184.452 42.8548 183.971 40.2527 183.971 36.5791C183.971 29.6753 186.762 26.9434 192.818 26.9434ZM230.795 46.7695H227.102V32.748H230.795V46.7695ZM268.013 32.4619C270.423 32.4619 272.039 33.0791 273.051 34.2627C274.064 35.4462 274.474 37.1955 274.474 39.4609V46.752H270.723V39.4609L270.689 38.2637C270.521 35.713 269.745 34.8291 268.013 34.8291C267.034 34.8291 265.973 35.0598 265.295 35.249V46.752H261.618V33.8818L262.42 33.5615C264.277 32.8562 266.044 32.462 268.013 32.4619ZM240.865 34.9102C240.277 34.7961 239.552 34.7313 238.827 34.8291C237.897 34.964 237.317 35.3095 236.972 36.0312C236.625 36.7512 236.513 37.851 236.513 39.4971C236.513 42.9587 236.897 44.4821 239.675 44.6279C239.857 44.6343 240.092 44.6445 240.333 44.6445C240.659 44.6445 241.086 44.5875 241.4 44.583V35.0361L240.865 34.9102ZM192.818 29.666C189.205 29.6661 187.819 31.0789 187.819 36.5791C187.819 42.397 188.644 44.2411 192.818 44.2412L193.552 44.2158C197.031 43.9559 197.67 41.7197 197.67 36.6514C197.67 34.047 197.203 32.3008 196.364 31.2051C195.524 30.1104 194.31 29.666 192.818 29.666ZM291.731 34.8623C290.877 34.8624 290.263 35.0817 289.85 35.6484C289.437 36.2162 289.225 37.1318 289.175 38.5234H294.381L294.314 37.5596C294.083 35.514 293.321 34.8623 291.731 34.8623ZM253.437 34.8428C252.581 34.8428 251.966 35.0642 251.552 35.6328C251.138 36.2015 250.927 37.1195 250.875 38.5127H256.088L256.02 37.5449C255.785 35.4922 255.021 34.8428 253.437 34.8428ZM230.795 30.625H227.102V27.6758H230.795V30.625Z" fill="white"/>
</svg>
