<svg xmlns="http://www.w3.org/2000/svg" width="24" height="24" viewBox="0 0 24 24" fill="none">
    <path fill-rule="evenodd" clip-rule="evenodd" d="M22 2V22H3L2.999 16.8002H2V15.2002H2.999V12.8002H2V11.2002H2.999V8.80017H2V7.20017H2.999L3 2H22ZM5 4L4.999 7.20017H6V8.80017H4.999V11.2002H6V12.8002H4.999V15.2002H6V16.8002H4.999L5 20V4ZM20 4H5V20H20V4Z" fill="#0081FF"/>
    <path fill-rule="evenodd" clip-rule="evenodd" d="M14.9786 13H11.0214L8 15.8507V17.9967H17.1631L18 18V15.8507L14.9786 13ZM14.2875 14.5709L16.2521 16.4248H9.74687L11.7115 14.5709H14.2875Z" fill="#0081FF"/>
    <path fill-rule="evenodd" clip-rule="evenodd" d="M16 9L13 6L10 9.00001L13 12L16 9ZM13.913 8.99959L13 9.91262L12.0869 8.99959L13 8.08654L13.913 8.99959Z" fill="#0081FF"/>
</svg>