<svg xmlns="http://www.w3.org/2000/svg" width="24" height="24" viewBox="0 0 24 24" fill="none">
    <path fill-rule="evenodd" clip-rule="evenodd" d="M18.5804 2.2002L20.7992 4.69601V19.3044L18.5804 21.8002H5.418L3.19922 19.3044V4.69601L5.418 2.2002H18.5804ZM17.8622 3.8002H6.13522L4.79922 5.3032V18.6962L6.13622 20.2002H17.8612L19.1992 18.6952V5.3042L17.8622 3.8002ZM11.9992 16.2002V17.8002H7.99922V16.2002H11.9992ZM15.9992 12.7002V14.3002H7.99922V12.7002H15.9992ZM16.7992 6.2002V10.0002H15.1992V8.9312L13.0784 11.0523L10.3272 9.0252L8.52599 10.6023L7.47245 9.3981L10.2423 6.9748L12.9202 8.9472L14.0672 7.7992L13.0349 7.8002V6.2002H16.7992Z" fill="#0081FF"/>
</svg>