<svg xmlns="http://www.w3.org/2000/svg" width="24" height="24" viewBox="0 0 24 24" fill="none">
    <path fill-rule="evenodd" clip-rule="evenodd" d="M21.7992 21.8002H2.19922V2.2002H21.7992V21.8002ZM3.79922 20.2002H8.17922V16.8002H3.79822L3.79922 20.2002ZM14.7182 16.8002H9.77922V20.2002H14.7182V16.8002ZM20.1982 16.8002H16.3182V20.2002H20.1992L20.1982 16.8002ZM20.1982 15.2002V11.8002H16.3182V15.2002H20.1982ZM3.79822 15.2002H8.17922V11.8002H3.79822V15.2002ZM14.7182 11.8002H9.77922V15.2002H14.7182V11.8002ZM20.1992 3.8002H3.79922L3.79822 10.2002H20.1982L20.1992 3.8002ZM15.7992 6.2002V7.8002H8.19922V6.2002H15.7992Z" fill="#0081FF"/>
</svg>