<svg xmlns="http://www.w3.org/2000/svg" width="24" height="24" viewBox="0 0 24 24" fill="none">
    <path fill-rule="evenodd" clip-rule="evenodd" d="M19.2922 11.5756L22.4236 14.707L15.3306 21.7999H12.1992V18.6686L19.2922 11.5756ZM17.7992 2.19995V11.7932H16.1992V3.79995H3.79922V20.2H10.8251V21.7999H2.19922V2.19995H17.7992ZM19.2922 13.838L13.7992 19.33V20.2H14.6672L20.1612 14.707L19.2922 13.838ZM10.6892 15.2V16.8H5.19922V15.2H10.6892ZM13.6492 12.2V13.8H5.14922V12.2H13.6492ZM7.49922 5.19995C8.68676 5.19995 9.67633 6.10451 9.79144 7.31753L9.79922 7.49995C9.79922 8.76978 8.76905 9.79995 7.49922 9.79995H5.19922V5.19995H7.49922ZM7.49922 6.79995H6.79922V8.19995H7.49922C7.88539 8.19995 8.19922 7.88612 8.20012 7.53798L8.19598 7.43173C8.16194 7.0758 7.86016 6.79995 7.49922 6.79995Z" fill="#0081FF"/>
</svg>