<svg xmlns="http://www.w3.org/2000/svg" width="24" height="24" viewBox="0 0 24 24" fill="none">
    <path fill-rule="evenodd" clip-rule="evenodd" d="M21.7992 2.2002V21.7241L21.0278 21.7517C20.726 21.7625 20.4126 21.7715 20.0876 21.7786L19.0781 21.7948L17.9992 21.8002H8.99922L7.9203 21.7948L6.9108 21.7786C6.74833 21.775 6.58875 21.771 6.43206 21.7665L5.19922 21.7241V14.2002H6.79922L6.79822 20.1742L7.43471 20.1883L8.46022 20.1989L8.99922 20.2002H17.9992L19.0597 20.1949C19.2306 20.1932 19.3986 20.191 19.5637 20.1883L20.1982 20.1752V3.80019H6.79822L6.79922 9.80019H5.19922V2.2002H21.7992ZM11.9992 7.86882L16.1306 12.0002L11.9992 16.1316L10.8678 15.0002L13.0672 12.7992L2.19922 12.8002V11.2002L13.0672 11.1992L10.8678 9.00019L11.9992 7.86882Z" fill="#0081FF"/>
</svg>