<svg width="24" height="24" viewBox="0 0 24 24" fill="none" xmlns="http://www.w3.org/2000/svg">
<path fill-rule="evenodd" clip-rule="evenodd" d="M15.4858 5.58734L15.6809 5.73795L15.7137 5.70678L16.8451 6.83815L16.8129 6.86995L16.9646 7.06609C18.8636 9.62552 18.8131 13.176 16.813 15.6827L20.1313 18.9999L18.9999 20.1313L15.6825 16.8132C12.9045 19.0296 8.84466 18.8516 6.27246 16.2794C3.50911 13.5161 3.50911 9.03581 6.27246 6.27246C8.7846 3.76033 12.7157 3.53195 15.4858 5.58734ZM7.40383 7.40383C5.26532 9.54234 5.26532 13.0096 7.40383 15.1481C9.48294 17.2272 12.818 17.2849 14.9668 15.3213L15.1481 15.1481C17.2272 13.069 17.2849 9.73394 15.3213 7.58506L15.1481 7.40383L14.9668 7.23058C12.818 5.26697 9.48294 5.32473 7.40383 7.40383Z" fill="#555F83"/>
</svg>
